<svg width="76" height="76" viewBox="0 0 76 76" fill="none" xmlns="http://www.w3.org/2000/svg">
<path d="M72.7806 0H3.16438C1.41674 0 0 1.41674 0 3.16437V52.2122C0 53.9598 1.41674 55.3766 3.16438 55.3766H17.4041V66.4519C17.4041 68.1995 18.8208 69.6162 20.5684 69.6162C20.8618 69.6161 21.1537 69.5745 21.4355 69.4928L30.9065 66.7873C32.245 69.2283 34.1201 71.3338 36.3903 72.9452V75.945H42.7191V71.1984C42.7196 69.999 42.0421 68.9024 40.9692 68.3663C38.5504 67.0093 36.7055 64.8216 35.7764 62.2084C34.9642 58.7559 35.6146 55.1213 37.5738 52.1647C37.836 51.6957 37.9733 51.1673 37.9725 50.63V36.7637L41.5008 38.5294L44.3487 52.8324C44.6497 54.3071 45.9479 55.3657 47.453 55.3639H60.8035L57.041 70.42C56.9778 70.6703 56.9459 70.9276 56.9461 71.1858V75.945H63.2748V71.5876L67.3252 55.3766H72.768C74.5156 55.3766 75.9323 53.9598 75.9323 52.2122V3.16437C75.9324 1.42167 74.5233 0.00697082 72.7806 0ZM23.7328 55.3766H29.53C29.1027 57.126 28.9532 58.9317 29.0869 60.7275L23.7328 62.2559V55.3766ZM69.6162 49.0478H50.0573L47.4023 35.7574C47.2126 34.7981 46.59 33.9805 45.7157 33.5424L36.2226 28.7958C35.2389 28.3042 34.0706 28.3586 33.1368 28.9394C32.203 29.5202 31.6377 30.5441 31.6438 31.6437V49.0478H6.32875V6.32875H69.6162V49.0478Z" fill="#EE4C01"/>
<path d="M20.5695 31.6428C26.6862 31.6428 31.6448 26.6842 31.6448 20.5675C31.6448 14.4508 26.6862 9.49219 20.5695 9.49219C14.4527 9.49219 9.49414 14.4508 9.49414 20.5675C9.49414 26.6842 14.4527 31.6428 20.5695 31.6428ZM20.5695 15.8209C23.1909 15.8209 25.316 17.946 25.316 20.5675C25.316 23.189 23.1909 25.3141 20.5695 25.3141C17.948 25.3141 15.8229 23.189 15.8229 20.5675C15.8229 17.946 17.948 15.8209 20.5695 15.8209ZM42.7201 12.6566H63.2885V18.9853H42.7201V12.6566ZM45.8845 23.7319H63.2885V30.0606H45.8845V23.7319Z" fill="#EE4C01"/>
</svg>
