<svg width="84" height="84" viewBox="0 0 84 84" fill="none" xmlns="http://www.w3.org/2000/svg">
<path d="M61.0161 64.8345C66.1725 64.8345 70.3525 60.6544 70.3525 55.4981C70.3525 50.3417 66.1725 46.1616 61.0161 46.1616C55.8597 46.1616 51.6797 50.3417 51.6797 55.4981C51.6797 60.6544 55.8597 64.8345 61.0161 64.8345Z" fill="#EE4C01"/>
<path d="M83.3191 83.4973C82.2898 75.125 72.7029 68.561 61.016 68.561C49.3292 68.561 39.7423 75.125 38.7129 83.4973H83.3191Z" fill="#EE4C01"/>
<path d="M0.283203 59.3308H45.7473M25.6401 23.5875V57.9M54.617 23.5875V40.7437M11.1534 23.5875V57.9M40.1269 23.5875V57.9M62.7594 22.016H3.00075L32.8801 3L62.7594 22.016Z" stroke="#EE4C01" stroke-width="6" stroke-linejoin="round"/>
</svg>
