<svg width="92" height="92" viewBox="0 0 92 92" fill="none" xmlns="http://www.w3.org/2000/svg">
<path d="M75.9221 0H22.875V30.5H30.5V7.625H72.7654L83.875 18.7346V76.25H53.375V83.875H91.5V15.5779L75.9221 0Z" fill="#EE4C01"/>
<path d="M57.1875 20.9688H72.4375V28.5938H57.1875V20.9688ZM45.75 36.2188H72.4375V43.8438H45.75V36.2188ZM45.75 51.4688H72.4375V59.0938H45.75V51.4688ZM35.2656 65.7656H27.6406V59.0938C33.0927 56.8221 36.1833 51.0179 35.025 45.2262C33.8667 39.4346 28.7814 35.2656 22.875 35.2656C16.9686 35.2656 11.8833 39.4346 10.725 45.2262C9.56666 51.0179 12.6573 56.8221 18.1094 59.0938V65.7656H10.4844C4.69576 65.7698 0.00420532 70.4614 0 76.25L0 79.1094H45.75V76.25C45.7458 70.4614 41.0542 65.7698 35.2656 65.7656ZM1.90625 87.6875C1.90625 89.7931 3.61316 91.5 5.71875 91.5H40.0312C42.1368 91.5 43.8438 89.7931 43.8438 87.6875V83.875H1.90625V87.6875Z" fill="#EE4C01"/>
</svg>
