<svg width="95" height="96" viewBox="0 0 95 96" fill="none" xmlns="http://www.w3.org/2000/svg">
<path d="M91.2708 65.8633H42.0059L66.6383 47.9141L91.2708 65.8633Z" fill="#EE4C01" stroke="#EE4C01" stroke-width="6" stroke-linejoin="round"/>
<path d="M39.9805 92.7462H93.2811M66.5959 68.8125V89.756M50.1742 68.8125V89.756M83.0175 68.8125V89.756" stroke="#EE4C01" stroke-width="6" stroke-linejoin="round"/>
<path d="M35.8473 83.8115C14.68 79.5181 0.483039 59.6588 3.37293 38.385C6.26283 17.1112 25.2507 1.70283 46.806 3.13966C68.3613 4.5765 85.1078 22.3669 85.1122 43.8336" stroke="#EE4C01" stroke-width="6" stroke-miterlimit="10"/>
<path d="M31.0891 68.8126C28.7067 60.687 27.5433 52.2567 27.6365 43.7937C27.6365 21.2634 34.9893 3 44.0581 3C52.5604 3 59.5561 19.0564 60.3936 39.6287M5.73028 29.5159H81.0069M4.2207 53.9922H41.1694" stroke="#EE4C01" stroke-width="6" stroke-miterlimit="10"/>
</svg>
