<svg width="64" height="78" viewBox="0 0 64 78" fill="none" xmlns="http://www.w3.org/2000/svg">
<path d="M47.0496 0H7.015C3.14072 0 0 3.14072 0 7.015V70.15C0 74.0243 3.14072 77.165 7.015 77.165H56.12C59.9943 77.165 63.135 74.0243 63.135 70.15V16.0854L47.0496 0ZM7.015 70.15V7.015H42.09V21.045H56.12V70.15H7.015Z" fill="#EE4C01"/>
<path d="M17.5368 56.1201C17.5368 59.9944 20.6775 63.1351 24.5518 63.1351H38.5818C42.4561 63.1351 45.5968 59.9944 45.5968 56.1201H17.5368ZM49.1043 48.579V52.6126H14.0293V48.579L28.0593 45.0715V34.3034L26.9018 33.2512C24.7275 31.3151 23.975 28.2372 25.0108 25.5163C26.0466 22.7954 28.6554 20.9971 31.5668 20.9971C34.4782 20.9971 37.087 22.7954 38.1228 25.5163C39.1586 28.2372 38.4061 31.3151 36.2318 33.2512L35.0743 34.3034V45.0715L49.1043 48.579Z" fill="#EE4C01"/>
</svg>
