<svg width="93" height="93" viewBox="0 0 93 93" fill="none" xmlns="http://www.w3.org/2000/svg">
<path d="M33.5 6.8125V29.6875L41.125 37.3125L29.6875 64L18.25 56.375V48.75L3 44.9375" stroke="#EE4C01" stroke-width="6" stroke-linejoin="round"/>
<path d="M44.9375 86.875C21.7761 86.875 3 68.0989 3 44.9375C3 21.7761 21.7761 3 44.9375 3C68.0989 3 86.875 21.7761 86.875 44.9375" stroke="#EE4C01" stroke-width="6" stroke-linejoin="round"/>
<path d="M69.582 92.4023C82.2155 92.4023 92.457 82.1609 92.457 69.5273C92.457 56.8938 82.2155 46.6523 69.582 46.6523C56.9485 46.6523 46.707 56.8938 46.707 69.5273C46.707 82.1609 56.9485 92.4023 69.582 92.4023Z" fill="#EE4C01"/>
<path d="M60.2031 67.8125L67.8281 75.4375L90.7031 52.5625" stroke="#272727" stroke-width="6" stroke-linejoin="round"/>
</svg>
