<svg width="59" height="70" viewBox="0 0 59 70" fill="none" xmlns="http://www.w3.org/2000/svg">
<path d="M29.28 36.6C39.3868 36.6 47.58 28.4068 47.58 18.3C47.58 8.19319 39.3868 0 29.28 0C19.1732 0 10.98 8.19319 10.98 18.3C10.9921 28.4018 19.1782 36.5879 29.28 36.6ZM29.28 7.32C35.3441 7.32 40.26 12.2359 40.26 18.3C40.26 24.3641 35.3441 29.28 29.28 29.28C23.2159 29.28 18.3 24.3641 18.3 18.3C18.3 12.2359 23.2159 7.32 29.28 7.32ZM32.94 40.26H25.62C11.4772 40.2761 0.0161356 51.7372 0 65.88V69.54H58.56V65.88C58.5439 51.7372 47.0828 40.2761 32.94 40.26ZM21.799 48.0265L25.62 54.9L23.1788 62.22H7.686C9.16208 55.1102 14.6977 49.543 21.799 48.0265ZM35.2604 62.22L32.574 54.9L36.1425 47.8655C43.526 49.1883 49.3602 54.8732 50.874 62.22H35.2604Z" fill="#EE4C01"/>
</svg>
