<svg width="82" height="82" viewBox="0 0 82 82" fill="none" xmlns="http://www.w3.org/2000/svg">
<path d="M25.3031 3V78.4875M56.1844 3V78.4875M3 3H78.4875V78.4875H3V3Z" stroke="#EE4C01" stroke-width="6" stroke-linejoin="round"/>
<path d="M37.1402 38.8547C37.1402 42.6447 34.0678 45.7172 30.2777 45.7172H23.4152C19.6252 45.7172 16.5527 42.6447 16.5527 38.8547C16.5527 35.0646 19.6252 31.9922 23.4152 31.9922H30.2777C34.0678 31.9922 37.1402 35.0646 37.1402 38.8547ZM37.1402 59.4422C37.1402 63.2322 34.0678 66.3047 30.2777 66.3047H23.4152C19.6252 66.3047 16.5527 63.2322 16.5527 59.4422C16.5527 55.6521 19.6252 52.5797 23.4152 52.5797H30.2777C34.0678 52.5797 37.1402 55.6521 37.1402 59.4422ZM68.0215 21.6984C68.0215 25.4885 64.949 28.5609 61.159 28.5609H54.2965C50.5064 28.5609 47.434 25.4885 47.434 21.6984C47.434 17.9084 50.5064 14.8359 54.2965 14.8359H61.159C64.949 14.8359 68.0215 17.9084 68.0215 21.6984ZM68.0215 42.2859C68.0215 46.076 64.949 49.1484 61.159 49.1484H54.2965C50.5064 49.1484 47.434 46.076 47.434 42.2859C47.434 38.4959 50.5064 35.4234 54.2965 35.4234H61.159C64.949 35.4234 68.0215 38.4959 68.0215 42.2859Z" fill="#EE4C01"/>
</svg>
