<svg width="90" height="90" viewBox="0 0 90 90" fill="none" xmlns="http://www.w3.org/2000/svg">
<g clip-path="url(#clip0_97_31378)">
<path d="M20.9812 65.5875C15.2962 65.5875 10.6875 60.9788 10.6875 55.2937C10.6875 49.6087 15.2962 45 20.9812 45C26.6663 45 31.275 49.6087 31.275 55.2937C31.275 60.9788 26.6663 65.5875 20.9812 65.5875ZM20.9812 51.8625C19.0862 51.8625 17.55 53.3987 17.55 55.2937C17.55 57.1888 19.0862 58.725 20.9812 58.725C22.8763 58.725 24.4125 57.1888 24.4125 55.2937C24.4125 53.3987 22.8763 51.8625 20.9812 51.8625Z" fill="#EE4C01"/>
<path d="M38.1367 86.175H3.82422V82.7437C3.82422 73.2686 11.5053 65.5875 20.9805 65.5875C30.4556 65.5875 38.1367 73.2686 38.1367 82.7437V86.175ZM11.2735 79.3125H30.6875C29.235 75.1968 25.3449 72.4444 20.9805 72.4444C16.616 72.4444 12.7259 75.1968 11.2735 79.3125ZM69.018 65.5875C63.3329 65.5875 58.7242 60.9788 58.7242 55.2937C58.7242 49.6087 63.3329 45 69.018 45C74.703 45 79.3117 49.6087 79.3117 55.2937C79.3117 60.9788 74.703 65.5875 69.018 65.5875ZM69.018 51.8625C67.1229 51.8625 65.5867 53.3987 65.5867 55.2937C65.5867 57.1888 67.1229 58.725 69.018 58.725C70.913 58.725 72.4492 57.1888 72.4492 55.2937C72.4492 53.3987 70.913 51.8625 69.018 51.8625Z" fill="#EE4C01"/>
<path d="M86.1742 86.1742H51.8617V82.743C51.8617 73.2678 59.5428 65.5867 69.018 65.5867C78.4931 65.5867 86.1742 73.2678 86.1742 82.743V86.1742ZM59.311 79.3117H78.725C77.2725 75.196 73.3824 72.4436 69.018 72.4436C64.6535 72.4436 60.7634 75.196 59.311 79.3117ZM48.4305 3.82422V32.9898H58.7242V41.568L74.1648 32.9898H86.1742V3.82422H48.4305ZM76.8412 24.3088L73.2041 27.9459L67.3023 22.0476L61.4006 27.9459L57.7635 24.3088L63.6618 18.407L57.7635 12.5053L61.4006 8.86816L67.3023 14.7665L73.2041 8.86816L76.8412 12.5053L70.9429 18.407L76.8412 24.3088ZM41.568 3.82422H3.82422V32.9898H15.8336L31.2742 41.568V32.9898H41.568V3.82422ZM19.2648 28.0523L10.5838 19.3678L14.2209 15.7307L19.2648 20.7712L31.1713 8.86816L34.8084 12.5053L19.2648 28.0523Z" fill="#EE4C01"/>
</g>
<defs>
<clipPath id="clip0_97_31378">
<rect width="90" height="90" fill="white"/>
</clipPath>
</defs>
</svg>
