<svg width="220" height="83" viewBox="0 0 220 83" fill="none" xmlns="http://www.w3.org/2000/svg">
<path d="M60.64 0V6.42778C60.64 8.2024 59.9213 9.81029 58.7581 10.9736C57.5948 12.1369 55.9881 12.8568 54.2123 12.8568C52.4364 12.8568 50.8297 12.1369 49.6664 10.9736C48.5032 9.81029 47.7832 8.20366 47.7832 6.42778C47.7832 2.87728 50.6618 0 54.2123 0L60.64 0Z" fill="#FF3506"/>
<path d="M22.8825 56.5877L22.6375 56.7115C20.1215 57.9797 17.1747 57.3355 15.3331 55.336C15.121 55.0405 14.9302 54.7209 14.7635 54.3812C13.1493 51.0075 11.5338 47.6351 9.91962 44.2601C9.86783 44.1528 9.81731 44.0467 9.76678 43.9393C9.72637 43.8547 9.68468 43.7688 9.64427 43.6842C9.19588 42.747 8.74748 41.811 8.30036 40.8751C8.30036 40.8751 8.2953 40.865 8.29404 40.86L8.07679 40.3888L7.97196 40.1627L7.64608 39.4592L7.4541 39.0462L7.40231 38.935L7.39978 38.9287L7.38336 38.8921L6.49416 36.9684L0.624658 24.2834C-0.885978 21.0196 0.438986 17.0573 3.56762 15.481L3.81266 15.3585C6.94129 13.7822 10.7356 15.1615 12.2462 18.4265L19.5101 34.1316L19.572 34.2654L19.6983 34.537L20.1177 35.4426L20.3463 35.9352L20.7113 36.7259L21.0574 37.4724L21.9782 39.4643L22.6489 40.9143L22.6691 40.9559L25.8268 47.7829C27.3374 51.0479 26.0124 55.0089 22.8838 56.5852L22.8825 56.5877Z" fill="#FF3506"/>
<path d="M20.4391 36.2495C20.4391 36.2495 20.4391 36.2533 20.4378 36.2558C20.2938 36.8848 19.6459 39.387 17.2385 40.9911C16.7939 41.2879 16.348 41.514 15.916 41.687C15.8807 41.7009 15.844 41.7148 15.8087 41.7287C15.7784 41.7401 15.748 41.7515 15.7177 41.7628C15.6874 41.7742 15.6571 41.7856 15.6268 41.7957C15.4108 41.8727 15.1986 41.9359 14.994 41.9877C14.9346 42.0028 14.8753 42.018 14.8159 42.0319C14.7868 42.0382 14.7565 42.0458 14.7275 42.0521C14.7136 42.0559 14.6997 42.0584 14.6871 42.0609C14.0846 42.1898 13.5566 42.2276 13.1638 42.2365C13.1158 42.2365 13.0678 42.2377 13.0198 42.2377C12.9011 42.2377 12.7988 42.2377 12.7141 42.2352C10.5366 42.1935 8.96534 41.3056 8.30096 40.8736C8.30096 40.8736 8.29591 40.8635 8.29465 40.8585L8.0774 40.3873L7.97256 40.1613L7.64669 39.4577L7.4547 39.0447L7.40292 38.9335L7.40039 38.9272C7.9612 39.2784 8.79356 39.723 9.86844 40.0425C10.7665 40.3078 12.3466 40.7827 14.2349 40.28C15.5763 39.9225 16.4781 39.2417 16.8229 38.9765C17.9572 38.1024 18.6329 37.0882 19.1343 36.3291C19.4627 35.8314 19.704 35.3957 19.8657 35.085C20.0564 35.4727 20.2471 35.8618 20.4391 36.2508V36.2495Z" fill="#CC3A00"/>
<path d="M22.6919 40.8808C22.6856 40.9036 22.6767 40.9301 22.6679 40.9566C22.6313 41.0627 22.5769 41.1991 22.4911 41.3911C21.665 43.2352 19.8525 44.9164 17.9465 45.6654C14.6208 46.9714 11.4152 45.2776 10.8342 44.9543C10.5449 44.7926 10.2835 44.6221 10.0536 44.4579C10.0334 44.444 10.0144 44.4301 9.99673 44.4162L9.92095 44.2596C9.86916 44.1522 9.81864 44.0461 9.76812 43.9387C9.7277 43.8541 9.68602 43.7682 9.6456 43.6836C9.19721 42.7464 8.74882 41.8105 8.30169 40.8745C8.30169 40.8745 8.29664 40.8644 8.29537 40.8594L8.07812 40.3882C8.32442 40.512 8.60104 40.6371 8.90544 40.7558C9.21236 40.8758 9.54834 40.9869 9.91211 41.0842C10.1723 41.1537 12.1136 41.6526 14.0019 41.2812C17.7836 40.5373 19.711 36.623 19.9359 36.1481C20.0079 35.9864 20.0799 35.8248 20.1506 35.6631C20.2314 35.8285 20.311 35.994 20.3918 36.1595L20.4386 36.2567L20.6899 36.7733L20.8137 37.0285L21.0448 37.5009L21.0575 37.4743L21.3897 36.7961L21.4591 36.6533L21.5539 36.4588C22.1601 37.2975 23.2413 39.0721 22.6931 40.8834L22.6919 40.8808Z" fill="#9B2E04"/>
<path d="M40.9492 24.5182L26.3114 54.3798C25.1645 56.7203 22.8771 58.0427 20.5379 57.9859C18.5397 58.0352 16.5782 57.0765 15.334 55.336C15.1218 55.0404 14.9311 54.7209 14.7644 54.3811C13.1502 51.0074 11.5347 47.635 9.9205 44.2601C9.86871 44.1527 9.81819 44.0466 9.76766 43.9393C9.72725 43.8546 9.68556 43.7687 9.64515 43.6841C9.19676 42.7469 8.74836 41.811 8.30124 40.875C8.30124 40.875 8.29618 40.8649 8.29492 40.8599C8.29997 40.8637 8.30503 40.8662 8.31134 40.87C8.62585 41.0746 10.5167 42.2379 13.0201 42.2379C13.0681 42.2379 13.1161 42.2379 13.1641 42.2366C13.6516 42.2278 14.1619 42.1748 14.6873 42.0611C14.7 42.0585 14.7139 42.0548 14.7278 42.0522C14.7568 42.0459 14.7871 42.0396 14.8162 42.032C14.8755 42.0181 14.9349 42.003 14.9943 41.9878C15.2027 41.9335 15.4149 41.8703 15.6271 41.7958C15.6574 41.7857 15.6877 41.7744 15.718 41.763C15.7483 41.7516 15.7786 41.7403 15.8089 41.7289C15.8443 41.715 15.8809 41.7011 15.9163 41.6872C19.1157 40.4254 20.3358 37.5734 20.5379 37.082L20.6895 36.7726L20.6933 36.7663L20.7135 36.7259L21.0393 36.0602L21.1088 35.9175L21.2035 35.723L29.7318 18.3254C30.8547 16.0342 33.0714 14.7168 35.3601 14.7168C36.3402 14.7168 37.333 14.9593 38.2588 15.4696C41.3432 17.1722 42.5558 21.2431 40.9504 24.517L40.9492 24.5182Z" fill="white"/>
<path d="M47.7441 15.2324V57.4443H60.6805V15.2324H47.7441Z" fill="white"/>
<path d="M85.6174 17.0483C85.3951 17.1759 84.2141 17.8592 82.8601 19.0528C81.1752 20.5382 80.0674 22.0652 79.3778 23.1767V15.2333H66.4414V57.4452H79.3778V38.23C79.4687 36.8558 79.8755 33.6931 82.2147 30.8171C86.5407 25.4983 93.5444 25.9972 94.2265 26.0578C94.2454 22.4454 94.2656 18.8318 94.2846 15.2194C92.2864 15.1006 88.8458 15.2042 85.6186 17.0496L85.6174 17.0483Z" fill="white"/>
<path d="M117.526 46.3238C115.91 46.3238 114.763 45.9967 114.084 45.3399C113.403 44.6856 113.063 43.5248 113.063 41.8601V26.1247H121.535V15.232H113.063V4.86719H100.127V41.6327C100.127 47.2812 101.5 51.3281 104.25 53.7734C106.998 56.2212 110.843 57.4426 115.787 57.4426H121.612V46.3225H117.527L117.526 46.3238Z" fill="white"/>
<path d="M169.978 15.2324V57.4443H156.965V49.804C155.755 52.2758 153.952 54.2424 151.557 55.7051C149.161 57.1677 146.374 57.899 143.198 57.899C138.357 57.899 134.51 56.2848 131.661 53.0577C128.811 49.8305 127.387 45.3921 127.387 39.7436V15.2324H140.247V38.1547C140.247 41.0294 140.991 43.2613 142.479 44.849C143.966 46.4379 145.97 47.2324 148.494 47.2324C151.018 47.2324 153.184 46.4 154.697 44.7366C156.21 43.0718 156.967 40.7023 156.967 37.6255V15.2324H169.979H169.978Z" fill="white"/>
<path d="M208.967 17.3126C212.27 19.0532 214.868 21.5616 216.759 24.8393C218.65 28.1182 219.596 31.9504 219.596 36.3383C219.596 40.7262 218.65 44.5597 216.759 47.8373C214.868 51.1163 212.27 53.6247 208.967 55.364C205.664 57.1045 201.919 57.9735 197.733 57.9735C193.547 57.9735 189.79 57.1032 186.462 55.364C183.133 53.6247 180.524 51.1163 178.632 47.8373C176.741 44.5597 175.795 40.7262 175.795 36.3383C175.795 31.9504 176.741 28.1182 178.632 24.8393C180.523 21.5616 183.132 19.0519 186.462 17.3126C189.79 15.5734 193.546 14.7031 197.733 14.7031C201.92 14.7031 205.664 15.5734 208.967 17.3126ZM191.492 28.5843C189.802 30.3753 188.959 32.9596 188.959 36.3383C188.959 39.717 189.802 42.2899 191.492 44.0544C193.181 45.8202 195.261 46.7018 197.733 46.7018C200.205 46.7018 202.273 45.8202 203.936 44.0544C205.601 42.2899 206.432 39.7183 206.432 36.3383C206.432 32.9583 205.6 30.3753 203.936 28.5843C202.273 26.7945 200.204 25.899 197.733 25.899C195.263 25.899 193.181 26.7945 191.492 28.5843Z" fill="white"/>
<path d="M116.486 80.4793C116.035 81.241 115.366 81.851 114.479 82.3108C113.592 82.7706 112.514 83.0004 111.243 83.0004C109.973 83.0004 108.869 82.787 107.882 82.3613C106.896 81.9344 106.105 81.3206 105.511 80.5172C104.918 79.7152 104.579 78.778 104.496 77.7082H108.259C108.342 78.4269 108.63 79.0256 109.124 79.5017C109.616 79.9779 110.273 80.2166 111.093 80.2166C111.828 80.2166 112.393 80.0209 112.785 79.6268C113.178 79.2327 113.375 78.7287 113.375 78.1098C113.375 77.5579 113.216 77.1032 112.899 76.7432C112.581 76.3832 112.18 76.0952 111.695 75.878C111.21 75.6607 110.542 75.4106 109.688 75.1252C108.584 74.7576 107.681 74.3939 106.979 74.0339C106.277 73.6739 105.679 73.1523 105.185 72.4664C104.692 71.7806 104.445 70.8863 104.445 69.7824C104.445 68.2616 104.992 67.0605 106.089 66.1826C107.184 65.3048 108.635 64.8652 110.44 64.8652C112.245 64.8652 113.805 65.3162 114.917 66.2193C116.029 67.1224 116.66 68.3261 116.811 69.8304H112.999C112.899 69.195 112.631 68.6721 112.197 68.2629C111.762 67.8537 111.169 67.6491 110.416 67.6491C109.764 67.6491 109.237 67.8208 108.836 68.1631C108.434 68.5054 108.233 69.0031 108.233 69.6561C108.233 70.1739 108.387 70.6046 108.697 70.9482C109.006 71.2905 109.399 71.5709 109.875 71.7881C110.351 72.0054 110.999 72.2479 111.819 72.5157C112.956 72.9173 113.879 73.2937 114.59 73.6449C115.301 73.996 115.908 74.5227 116.409 75.225C116.911 75.9272 117.162 76.8467 117.162 77.9835C117.162 78.8866 116.936 79.719 116.485 80.4793H116.486Z" fill="white"/>
<path d="M123.509 67.926V72.516H129.779V75.2253H123.509V79.9909H130.532V82.8252H119.973V65.1182H130.532V67.9272H123.509V67.926Z" fill="white"/>
<path d="M142.571 82.8252L138.433 75.9276H136.878V82.8252H133.342V65.1182H140.089C142.145 65.1182 143.713 65.6196 144.792 66.6225C145.87 67.6254 146.41 68.9465 146.41 70.5848C146.41 71.9223 146.037 73.0427 145.293 73.9458C144.549 74.8489 143.474 75.4501 142.07 75.752L146.484 82.8252H142.571ZM136.877 73.4949H139.786C141.809 73.4949 142.821 72.6006 142.821 70.8108C142.821 69.9583 142.575 69.2939 142.081 68.8164C141.587 68.3403 140.823 68.1015 139.786 68.1015H136.877V73.4936V73.4949Z" fill="white"/>
<path d="M151.474 65.1162L156.215 79.1363L160.98 65.1162H164.767L158.497 82.8232H153.957L147.688 65.1162H151.474Z" fill="white"/>
<path d="M170.412 65.1162V82.8232H166.875V65.1162H170.412Z" fill="white"/>
<path d="M187.316 66.6479C188.771 67.7847 189.732 69.332 190.201 71.2885H186.489C186.104 70.3349 185.506 69.5833 184.695 69.0314C183.884 68.4794 182.911 68.204 181.774 68.204C180.837 68.204 179.993 68.439 179.24 68.9063C178.487 69.3749 177.902 70.0431 177.484 70.9133C177.066 71.7836 176.858 72.8029 176.858 73.9738C176.858 75.1446 177.066 76.1399 177.484 77.0089C177.902 77.8792 178.487 78.5474 179.24 79.016C179.993 79.4846 180.837 79.7182 181.774 79.7182C182.911 79.7182 183.884 79.4429 184.695 78.8909C185.506 78.3389 186.104 77.5861 186.489 76.6338H190.201C189.732 78.5903 188.771 80.1376 187.316 81.2743C185.861 82.4111 184.031 82.9795 181.823 82.9795C180.134 82.9795 178.641 82.5993 177.345 81.8377C176.05 81.0773 175.047 80.0113 174.336 78.6396C173.624 77.2691 173.27 75.7143 173.27 73.975C173.27 72.2358 173.624 70.6557 174.336 69.2852C175.045 67.9148 176.044 66.8488 177.333 66.0871C178.62 65.3268 180.117 64.9453 181.822 64.9453C184.028 64.9453 185.86 65.5137 187.315 66.6505L187.316 66.6479Z" fill="white"/>
<path d="M196.597 67.926V72.516H202.867V75.2253H196.597V79.9909H203.62V82.8252H193.061V65.1182H203.62V67.9272H196.597V67.926Z" fill="white"/>
<path d="M217.914 80.4793C217.463 81.241 216.794 81.851 215.907 82.3108C215.02 82.7706 213.942 83.0004 212.671 83.0004C211.4 83.0004 210.296 82.787 209.31 82.3613C208.323 81.9344 207.533 81.3206 206.939 80.5172C206.345 79.7152 206.007 78.778 205.924 77.7082H209.686C209.77 78.4269 210.058 79.0256 210.551 79.5017C211.044 79.9779 211.701 80.2166 212.521 80.2166C213.256 80.2166 213.82 80.0209 214.213 79.6268C214.606 79.234 214.803 78.7287 214.803 78.1098C214.803 77.5579 214.644 77.1032 214.327 76.7432C214.008 76.3832 213.608 76.0952 213.123 75.878C212.638 75.6607 211.97 75.4106 211.116 75.1252C210.012 74.7576 209.109 74.3939 208.407 74.0339C207.704 73.6739 207.107 73.1523 206.613 72.4664C206.119 71.7806 205.873 70.8863 205.873 69.7824C205.873 68.2616 206.42 67.0605 207.516 66.1826C208.611 65.3048 210.063 64.8652 211.868 64.8652C213.673 64.8652 215.232 65.3162 216.345 66.2193C217.457 67.1224 218.088 68.3261 218.239 69.8304H214.427C214.327 69.195 214.059 68.6721 213.625 68.2629C213.19 67.8537 212.596 67.6491 211.844 67.6491C211.192 67.6491 210.665 67.8208 210.263 68.1631C209.862 68.5054 209.661 69.0031 209.661 69.6561C209.661 70.1739 209.815 70.6046 210.125 70.9482C210.434 71.2905 210.827 71.5709 211.303 71.7881C211.779 72.0054 212.427 72.2479 213.247 72.5157C214.384 72.9173 215.307 73.2937 216.018 73.6449C216.729 73.996 217.335 74.5227 217.837 75.225C218.338 75.9272 218.59 76.8467 218.59 77.9835C218.59 78.8866 218.364 79.719 217.913 80.4793H217.914Z" fill="white"/>
</svg>
