<svg width="42" height="42" viewBox="0 0 42 42" fill="none" xmlns="http://www.w3.org/2000/svg">
<g clip-path="url(#clip0_64_3459)">
<path d="M8.99565e-08 38.4998H42V41.9998H8.99565e-08V38.4998ZM42 13.8405V17.4998H36.75V31.4998H40.25V34.9998H1.75V31.4998H5.25V17.4998H8.99565e-08V13.8405C-0.000174483 12.8973 0.253741 11.9715 0.735057 11.1604C1.21637 10.3493 1.90731 9.68279 2.73525 9.231L18.4852 0.640252C19.2563 0.218256 20.1211 -0.00292969 21 -0.00292969C21.8789 -0.00292969 22.7437 0.218256 23.5148 0.640252L39.2648 9.231C40.0927 9.68279 40.7836 10.3493 41.2649 11.1604C41.7463 11.9715 42.0002 12.8973 42 13.8405ZM8.75 31.4998H14V17.4998H8.75V31.4998ZM17.5 17.4998V31.4998H24.5V17.4998H17.5ZM33.25 17.4998H28V31.4998H33.25V17.4998ZM38.5 13.8405C38.5001 13.5261 38.4154 13.2175 38.255 12.9471C38.0945 12.6768 37.8642 12.4546 37.5882 12.304L21.8382 3.71325C21.5811 3.57295 21.2929 3.49943 21 3.49943C20.7071 3.49943 20.4189 3.57295 20.1618 3.71325L4.41175 12.304C4.13577 12.4546 3.90546 12.6768 3.74502 12.9471C3.58458 13.2175 3.49994 13.5261 3.5 13.8405V13.9998H38.5V13.8405Z" fill="#EE4C01"/>
</g>
<defs>
<clipPath id="clip0_64_3459">
<rect width="42" height="42" fill="white"/>
</clipPath>
</defs>
</svg>
