<svg width="42" height="42" viewBox="0 0 42 42" fill="none" xmlns="http://www.w3.org/2000/svg">
<path d="M33.25 24.5128C33.2502 22.4975 32.7531 20.5132 31.8028 18.7359C30.8525 16.9586 29.4784 15.4433 27.8023 14.3242C26.1262 13.2051 24.1999 12.5168 22.1941 12.3203C20.1883 12.1239 18.1651 12.4253 16.3037 13.198C14.4423 13.9706 12.8003 15.1906 11.5233 16.7497C10.2462 18.3088 9.37354 20.1589 8.98265 22.136C8.59175 24.1131 8.69469 26.1561 9.28235 28.0839C9.87 30.0117 10.9242 31.7647 12.3515 33.1876L21 41.6506L29.6625 33.1788C30.8042 32.0436 31.7091 30.693 32.325 29.2054C32.9408 27.7178 33.2552 26.1228 33.25 24.5128ZM21 36.7506L14.812 30.6991C13.5889 29.476 12.7557 27.9178 12.4178 26.2214C12.0798 24.5249 12.2523 22.7664 12.9133 21.168C13.5743 19.5695 14.6943 18.2028 16.1317 17.2406C17.5692 16.2784 19.2595 15.7638 20.9893 15.7618C22.719 15.7599 24.4105 16.2707 25.8501 17.2296C27.2897 18.1886 28.4128 19.5527 29.0774 21.1497C29.7421 22.7467 29.9185 24.5048 29.5844 26.202C29.2503 27.8991 28.4206 29.4592 27.2003 30.6851L21 36.7506ZM21 19.2506C19.9617 19.2506 18.9466 19.5585 18.0833 20.1354C17.2199 20.7122 16.547 21.5322 16.1497 22.4915C15.7523 23.4508 15.6483 24.5064 15.8509 25.5248C16.0535 26.5432 16.5535 27.4787 17.2877 28.2129C18.0219 28.9471 18.9574 29.4471 19.9758 29.6497C20.9942 29.8523 22.0498 29.7483 23.0091 29.3509C23.9684 28.9536 24.7884 28.2807 25.3652 27.4173C25.9421 26.554 26.25 25.5389 26.25 24.5006C26.25 23.1082 25.6969 21.7728 24.7123 20.7883C23.7278 19.8037 22.3924 19.2506 21 19.2506ZM42 17.5811V42.0006H25.6428L29.225 38.5006H38.5V17.5758C38.501 17.3101 38.4409 17.0477 38.3244 16.8089C38.2079 16.5702 38.038 16.3613 37.828 16.1986L22.078 3.87157C21.7702 3.63089 21.3907 3.50013 21 3.50013C20.6093 3.50013 20.2298 3.63089 19.922 3.87157L4.17202 16.1951C3.96181 16.3584 3.79192 16.5679 3.67541 16.8073C3.5589 17.0467 3.4989 17.3096 3.50002 17.5758V38.5006H12.775L16.3538 42.0006H1.80906e-05V17.5758C-0.00208003 16.7785 0.178352 15.9913 0.527491 15.2746C0.87663 14.5578 1.38521 13.9304 2.01427 13.4406L17.7643 1.11707C18.6882 0.393294 19.8281 0 21.0018 0C22.1755 0 23.3153 0.393294 24.2393 1.11707L39.9893 13.4441C40.6176 13.9336 41.1255 14.5604 41.4741 15.2766C41.8226 15.9928 42.0025 16.7793 42 17.5758V17.5811Z" fill="#EE4C01"/>
</svg>
