<svg width="42" height="39" viewBox="0 0 42 39" fill="none" xmlns="http://www.w3.org/2000/svg">
<path d="M42 31.5V5.25C42 3.85761 41.4469 2.52226 40.4623 1.53769C39.4777 0.553123 38.1424 0 36.75 0H5.25C3.85761 0 2.52226 0.553123 1.53769 1.53769C0.553123 2.52226 0 3.85761 0 5.25L0 31.5H19.25V35H10.5V38.5H31.5V35H22.75V31.5H42ZM5.25 3.5H36.75C37.2141 3.5 37.6592 3.68437 37.9874 4.01256C38.3156 4.34075 38.5 4.78587 38.5 5.25V21H3.5V5.25C3.5 4.78587 3.68437 4.34075 4.01256 4.01256C4.34075 3.68437 4.78587 3.5 5.25 3.5ZM3.5 24.5H38.5V28H3.5V24.5Z" fill="#EE4C01"/>
</svg>
