<svg width="39" height="42" viewBox="0 0 39 42" fill="none" xmlns="http://www.w3.org/2000/svg">
<path d="M9.6005 38.7503L7.79975 35.7491C14 32.0251 14 24.0276 14 19.2501C14 17.8577 14.5531 16.5223 15.5377 15.5378C16.5223 14.5532 17.8576 14.0001 19.25 14.0001C20.6424 14.0001 21.9777 14.5532 22.9623 15.5378C23.9469 16.5223 24.5 17.8577 24.5 19.2501H21C21 18.786 20.8156 18.3408 20.4874 18.0127C20.1592 17.6845 19.7141 17.5001 19.25 17.5001C18.7859 17.5001 18.3408 17.6845 18.0126 18.0127C17.6844 18.3408 17.5 18.786 17.5 19.2501C17.5 24.4073 17.5 34.0096 9.6005 38.7503ZM24.318 24.6471L20.825 24.3531C20.272 30.8788 18.1562 35.9293 14.539 39.3681L16.9488 41.9038C21.2153 37.8596 23.6915 32.0513 24.325 24.6471H24.318ZM29.1235 35.5933L25.8317 34.4068C25.121 36.3961 24.1814 38.2959 23.0317 40.0681L25.9613 41.9826C27.2599 39.9829 28.3212 37.8387 29.1235 35.5933ZM31.5 19.2501C31.4983 16.7709 30.7445 14.3505 29.338 12.3088C27.9315 10.2672 25.9386 8.70029 23.6227 7.81531C21.3069 6.93033 18.7769 6.76888 16.3673 7.35229C13.9577 7.9357 11.7818 9.23652 10.1273 11.0828L12.733 13.4173C13.9147 12.0983 15.4689 11.1689 17.1901 10.752C18.9113 10.3351 20.7185 10.4503 22.3728 11.0823C24.0271 11.7144 25.4507 12.8335 26.4555 14.2919C27.4602 15.7502 27.9988 17.4791 28 19.2501C28.0645 22.657 27.7937 26.062 27.1915 29.4158L30.6267 30.0843C31.2745 26.5106 31.567 22.8815 31.5 19.2501ZM10.5 19.2501C10.4995 18.7617 10.5399 18.274 10.6207 17.7923L7.175 17.2078C7.05948 17.8825 7.00094 18.5656 7 19.2501C7 27.3788 4.6445 31.5001 0 31.5001V35.0001C6.77075 35.0001 10.5 29.4001 10.5 19.2501ZM38.5 19.2501C38.5081 16.3432 37.8495 13.4732 36.575 10.8606L33.425 12.3918C34.4663 14.5278 35.0051 16.8738 35 19.2501C35.2395 26.4133 33.8801 33.5398 31.0205 40.1118L34.1705 41.6186C37.2664 34.5794 38.7458 26.9361 38.5 19.2501ZM3.5 19.2501C3.50463 15.0744 5.16549 11.071 8.11818 8.11827C11.0709 5.16558 15.0743 3.50472 19.25 3.50009C22.6597 3.48873 25.9791 4.5952 28.7 6.65009L30.8 3.85009C27.4739 1.33958 23.4172 -0.0126609 19.25 8.93453e-05C14.1464 0.00611017 9.25362 2.03616 5.64484 5.64493C2.03607 9.2537 0.00602082 14.1465 0 19.2501V24.5001H3.5V19.2501Z" fill="#EE4C01"/>
</svg>
