<svg width="42" height="42" viewBox="0 0 42 42" fill="none" xmlns="http://www.w3.org/2000/svg">
<path d="M25.3729 22.7491C24.8537 22.7491 24.3462 22.5951 23.9145 22.3067C23.4829 22.0182 23.1464 21.6083 22.9477 21.1286C22.749 20.649 22.6971 20.1212 22.7983 19.612C22.8996 19.1028 23.1496 18.635 23.5167 18.2679C23.8839 17.9008 24.3516 17.6508 24.8608 17.5495C25.37 17.4482 25.8978 17.5002 26.3774 17.6989C26.8571 17.8976 27.2671 18.234 27.5555 18.6657C27.8439 19.0974 27.9979 19.6049 27.9979 20.1241C27.9979 20.8203 27.7213 21.4879 27.2291 21.9802C26.7368 22.4725 26.0691 22.7491 25.3729 22.7491ZM41.8666 31.7511C42.085 33.0079 42.026 34.2974 41.6936 35.529C41.3612 36.7606 40.7635 37.9047 39.9424 38.881C39.1213 39.8573 38.0966 40.6423 36.9402 41.1809C35.7838 41.7195 34.5236 41.9988 33.2479 41.9991H26.2479C25.7838 41.9991 25.3387 41.8147 25.0105 41.4865C24.6823 41.1583 24.4979 40.7132 24.4979 40.2491V36.2888C23.3555 36.5901 22.1794 36.7447 20.9979 36.7491C19.8158 36.743 18.6393 36.5842 17.4979 36.2766V40.2491C17.4979 40.7132 17.3135 41.1583 16.9853 41.4865C16.6572 41.8147 16.212 41.9991 15.7479 41.9991H8.74792C7.47222 41.9988 6.21202 41.7195 5.05561 41.1809C3.89919 40.6423 2.87454 39.8573 2.05344 38.881C1.23234 37.9047 0.634649 36.7606 0.30225 35.529C-0.0301482 34.2974 -0.0892169 33.0079 0.129183 31.7511L0.654182 28.7061C0.828758 27.6933 1.30272 26.7561 2.01495 26.0153C2.72718 25.2744 3.64502 24.7639 4.6501 24.5496C5.65518 24.3353 6.70142 24.427 7.6539 24.8129C8.60638 25.1988 9.42142 25.8611 9.99392 26.7146C12.2059 29.9661 16.4637 33.2491 20.9979 33.2491C26.4754 33.2491 31.8724 28.3858 33.4754 23.8411C33.604 23.4995 33.8334 23.205 34.133 22.9965C34.4327 22.7881 34.7886 22.6756 35.1536 22.6738L35.9096 22.6861C36.2485 22.6902 36.5848 22.627 36.899 22.5001C37.2132 22.3731 37.499 22.185 37.7398 21.9466C37.9806 21.7082 38.1717 21.4243 38.3018 21.1114C38.432 20.7986 38.4986 20.4629 38.4979 20.1241C38.4973 19.5103 38.2816 18.9161 37.8883 18.4449C37.4951 17.9736 36.9491 17.6551 36.3454 17.5446C35.9731 17.477 35.6326 17.2906 35.3752 17.0133C35.1177 16.736 34.9571 16.3826 34.9174 16.0063C34.5577 12.5681 32.9351 9.38559 30.3636 7.07505C27.7922 4.76451 24.4549 3.49028 20.9979 3.49907C11.2382 3.49907 8.55892 9.84807 6.40642 14.9511C6.01443 15.8733 5.64518 16.7536 5.24793 17.5463C8.7668 17.3603 12.198 16.3808 15.2849 14.6813C18.3718 12.9818 21.0343 10.6062 23.0734 7.73232C23.2069 7.54525 23.376 7.38632 23.5709 7.26459C23.7659 7.14285 23.9829 7.06071 24.2096 7.02285C24.4363 6.98499 24.6682 6.99214 24.8921 7.04391C25.116 7.09568 25.3276 7.19105 25.5147 7.32457C25.7017 7.45809 25.8607 7.62715 25.9824 7.8221C26.1041 8.01705 26.1863 8.23406 26.2241 8.46075C26.262 8.68744 26.2548 8.91937 26.2031 9.1433C26.1513 9.36722 26.0559 9.57875 25.9224 9.76582C23.6509 12.9861 20.6875 15.6571 17.2494 17.5831C17.7735 17.7117 18.2452 17.9988 18.6003 18.4052C18.9553 18.8116 19.1765 19.3175 19.2337 19.8541C19.2909 20.3907 19.1814 20.9319 18.9199 21.404C18.6585 21.8761 18.2579 22.2562 17.7728 22.4924C17.2876 22.7287 16.7414 22.8097 16.2085 22.7243C15.6757 22.639 15.182 22.3916 14.7949 22.0156C14.4077 21.6397 14.1458 21.1536 14.0449 20.6235C13.9439 20.0933 14.0088 19.545 14.2307 19.0531C10.2071 20.6823 5.85658 21.3418 1.53093 20.9781C1.17038 20.9297 0.833853 20.7703 0.568147 20.5218C0.302441 20.2734 0.120766 19.9483 0.0483876 19.5918C-0.0239903 19.2353 0.0165269 18.8651 0.164304 18.5327C0.312082 18.2003 0.559773 17.9222 0.872932 17.7371C1.93086 16.5368 2.7181 15.1228 3.18118 13.5913C5.46493 8.17857 8.92292 -0.00092755 20.9979 -0.00092755C25.118 -0.0106881 29.1088 1.43766 32.2636 4.08771C35.4184 6.73776 37.5338 10.4186 38.2354 14.4786C39.349 14.9441 40.3003 15.7284 40.9697 16.7328C41.6391 17.7372 41.9968 18.917 41.9979 20.1241C41.9949 21.5783 41.4638 22.9819 40.5034 24.0738C40.5156 24.1193 40.5471 24.1561 40.5559 24.2051L41.8666 31.7511ZM13.9979 34.8941C11.2299 33.4107 8.8632 31.2777 7.10117 28.6781C6.95122 28.4514 6.74778 28.2652 6.50881 28.1358C6.26984 28.0064 6.00268 27.9378 5.73093 27.9361H5.70118C5.31804 27.9441 4.94959 28.085 4.6588 28.3346C4.36802 28.5842 4.17294 28.9271 4.10693 29.3046L3.58193 32.3478C3.45056 33.1017 3.48559 33.8752 3.68454 34.6141C3.8835 35.353 4.24158 36.0394 4.7337 36.6254C5.22583 37.2114 5.8401 37.6827 6.53351 38.0064C7.22692 38.33 7.9827 38.4982 8.74792 38.4991H13.9979V34.8941ZM38.4191 32.3478L37.3201 26.0251C36.9874 26.1044 36.6483 26.1548 36.3069 26.1756C34.5413 29.9011 31.6296 32.9637 27.9979 34.9151V38.4991H33.2479C34.0134 38.4989 34.7696 38.3314 35.4635 38.0081C36.1574 37.6849 36.7722 37.2139 37.2649 36.628C37.7576 36.0421 38.1162 35.3556 38.3155 34.6165C38.5149 33.8775 38.5503 33.1037 38.4191 32.3496V32.3478Z" fill="#EE4C01"/>
</svg>
