<svg width="42" height="42" viewBox="0 0 42 42" fill="none" xmlns="http://www.w3.org/2000/svg">
<path d="M25.2245 0H8.75C7.35761 0 6.02226 0.553123 5.03769 1.53769C4.05312 2.52226 3.5 3.85761 3.5 5.25V42H38.5V13.2755L25.2245 0ZM26.25 5.9745L32.5255 12.25H26.25V5.9745ZM7 38.5V5.25C7 4.78587 7.18437 4.34075 7.51256 4.01256C7.84075 3.68437 8.28587 3.5 8.75 3.5H22.75V15.75H35V38.5H7ZM26.7628 22.9635L29.2373 25.438L22.9618 31.7118C22.4742 32.1994 21.8954 32.5861 21.2584 32.85C20.6214 33.1139 19.9386 33.2498 19.2491 33.2498C18.5596 33.2498 17.8768 33.1139 17.2398 32.85C16.6028 32.5861 16.024 32.1994 15.5365 31.7118L12.7628 28.938L15.2372 26.4635L18.0128 29.2373C18.3459 29.5558 18.7891 29.7336 19.25 29.7336C19.7109 29.7336 20.1541 29.5558 20.4872 29.2373L26.7628 22.9635Z" fill="#EE4C01"/>
</svg>
