<svg width="80" height="80" viewBox="0 0 80 80" fill="none" xmlns="http://www.w3.org/2000/svg">
<path d="M75.89 27.9732L51.7833 4.87989C48.6665 1.76398 44.4425 0.00940804 40.0353 3.77241e-05C35.6282 -0.00933259 31.3967 1.72726 28.2667 4.82989L4.11 27.9732C2.81357 29.2196 1.78149 30.7144 1.07536 32.3683C0.36922 34.0223 0.00349336 35.8015 0 37.5999L0 79.9999H80V37.5999C79.9965 35.8015 79.6308 34.0223 78.9246 32.3683C78.2185 30.7144 77.1864 29.2196 75.89 27.9732ZM32.93 9.59322C34.8408 7.75968 37.3893 6.7403 40.0374 6.75026C42.6856 6.76021 45.2264 7.79871 47.1233 9.64655L69.6167 31.1932L47.07 53.7399C45.1644 55.5564 42.6327 56.5697 40 56.5697C37.3673 56.5697 34.8356 55.5564 32.93 53.7399L10.3833 31.1932L32.93 9.59322ZM73.3333 73.3332H6.66667V37.5999C6.66667 37.3866 6.71 37.1799 6.73 36.9666L28.2167 58.4532C31.3421 61.5777 35.5806 63.333 40 63.333C44.4194 63.333 48.6579 61.5777 51.7833 58.4532L73.27 36.9666C73.29 37.1799 73.3333 37.3866 73.3333 37.5999V73.3332Z" fill="#EE4C01"/>
</svg>
