<svg width="80" height="80" viewBox="0 0 80 80" fill="none" xmlns="http://www.w3.org/2000/svg">
<g clip-path="url(#clip0_150_14432)">
<path d="M63.3324 46.6891C63.3327 42.8503 62.3858 39.0708 60.5757 35.6855C58.7657 32.3002 56.1484 29.4138 52.9558 27.2822C49.7632 25.1505 46.094 23.8395 42.2735 23.4653C38.453 23.0911 34.5992 23.6653 31.0537 25.137C27.5082 26.6087 24.3806 28.9324 21.9481 31.9022C19.5156 34.8719 17.8534 38.396 17.1088 42.1619C16.3643 45.9278 16.5603 49.8192 17.6797 53.4912C18.799 57.1632 20.807 60.5023 23.5257 63.2125L39.9991 79.3325L56.4991 63.1958C58.6736 61.0334 60.3974 58.4609 61.5704 55.6274C62.7434 52.7939 63.3423 49.7558 63.3324 46.6891ZM39.9991 69.9991L28.2124 58.4725C25.8826 56.1427 24.2956 53.1748 23.6519 49.9435C23.0082 46.7122 23.3367 43.3627 24.5958 40.318C25.8549 37.2733 27.9882 34.6701 30.7262 32.8373C33.4641 31.0045 36.6838 30.0243 39.9786 30.0206C43.2733 30.0169 46.4953 30.9898 49.2374 32.8164C51.9794 34.643 54.1186 37.2414 55.3846 40.2832C56.6506 43.325 56.9866 46.6738 56.3502 49.9065C55.7138 53.1392 54.1336 56.1108 51.8091 58.4458L39.9991 69.9991ZM39.9991 36.6658C38.0212 36.6658 36.0879 37.2523 34.4434 38.3511C32.7989 39.4499 31.5171 41.0117 30.7603 42.839C30.0034 44.6662 29.8054 46.6769 30.1912 48.6167C30.5771 50.5565 31.5295 52.3383 32.928 53.7369C34.3265 55.1354 36.1083 56.0878 38.0482 56.4737C39.988 56.8595 41.9986 56.6615 43.8259 55.9046C45.6532 55.1477 47.2149 53.866 48.3138 52.2215C49.4126 50.577 49.9991 48.6436 49.9991 46.6658C49.9991 44.0136 48.9455 41.4701 47.0701 39.5947C45.1948 37.7194 42.6512 36.6658 39.9991 36.6658ZM79.9991 33.4858V79.9991H48.8424L55.6657 73.3325H73.3324V33.4758C73.3343 32.9697 73.2198 32.4699 72.9979 32.0151C72.7759 31.5602 72.4525 31.1625 72.0524 30.8525L42.0524 7.37247C41.4661 6.91402 40.7433 6.66496 39.9991 6.66496C39.2548 6.66496 38.532 6.91402 37.9457 7.37247L7.94573 30.8458C7.54534 31.157 7.22172 31.5559 6.9998 32.0119C6.77789 32.4679 6.66359 32.9687 6.66573 33.4758V73.3325H24.3324L31.1491 79.9991H-0.000942104V33.4758C-0.00493853 31.9572 0.338742 30.4577 1.00377 29.0924C1.6688 27.7272 2.63752 26.5322 3.83573 25.5991L33.8357 2.1258C35.5957 0.747178 37.7668 -0.00195312 40.0024 -0.00195312C42.238 -0.00195312 44.4091 0.747178 46.1691 2.1258L76.1691 25.6058C77.3659 26.5382 78.3334 27.7322 78.9972 29.0964C79.6611 30.4606 80.0038 31.9587 79.9991 33.4758V33.4858Z" fill="#EE4C01"/>
</g>
<defs>
<clipPath id="clip0_150_14432">
<rect width="80" height="80" fill="white"/>
</clipPath>
</defs>
</svg>
