<svg width="80" height="80" viewBox="0 0 80 80" fill="none" xmlns="http://www.w3.org/2000/svg">
<g clip-path="url(#clip0_150_6580)">
<path d="M47.334 54.2033C37.6286 50.0939 29.9108 42.3582 25.824 32.6433L37.1573 21.29L16.2906 0.406667L5.72065 10.9733C3.88732 12.8171 2.43781 15.0062 1.45598 17.4138C0.474156 19.8215 -0.020494 22.3999 0.000650338 25C0.000650338 49.16 30.8406 80 55.0006 80C57.6004 80.0227 60.1788 79.5288 62.5862 78.5469C64.9935 77.5649 67.1818 76.1146 69.024 74.28L79.594 63.71L58.7107 42.8267L47.334 54.2033ZM64.3073 69.5667C63.0832 70.7801 61.63 71.7381 60.0323 72.3847C58.4345 73.0313 56.7242 73.3538 55.0006 73.3333C34.224 73.3333 6.66732 45.7767 6.66732 25C6.64769 23.2761 6.97053 21.5655 7.61712 19.9673C8.26371 18.3691 9.22117 16.9153 10.434 15.69L16.2906 9.83333L27.7473 21.29L17.964 31.0733L18.7806 33.12C21.1848 39.551 24.9432 45.3902 29.8012 50.2418C34.6591 55.0935 40.5032 58.8442 46.9373 61.24L48.9573 62.01L58.7107 52.2533L70.1673 63.71L64.3073 69.5667ZM46.6673 6.66667V0C55.5049 0.00970532 63.9777 3.52472 70.2268 9.77383C76.4759 16.0229 79.9909 24.4958 80.0006 33.3333H73.334C73.326 26.2633 70.514 19.4852 65.5147 14.4859C60.5155 9.48667 53.7373 6.67461 46.6673 6.66667ZM46.6673 20V13.3333C51.97 13.3386 57.054 15.4475 60.8036 19.197C64.5532 22.9466 66.662 28.0306 66.6673 33.3333H60.0006C60.0006 29.7971 58.5959 26.4057 56.0954 23.9052C53.5949 21.4048 50.2035 20 46.6673 20Z" fill="#EE4C01"/>
</g>
<defs>
<clipPath id="clip0_150_6580">
<rect width="80" height="80" fill="white"/>
</clipPath>
</defs>
</svg>
